# xmcd
#
# Track frame offsets: 
#        187
#        14680
#        29592
#        42137
#        60172
#        78032
#        92295
#        107387
#        124655
#        137852
#
# Disc length: 2064 seconds
#
# Revision: 2
# Processed by: cddbd v1.4PL0 Copyright (c) Steve Scherf et al.
# Submitted via: ExactAudioCopy v0.90b4
#
DISCID=6e080e0a
DTITLE=McBride and The Ride - Sacred Ground
DYEAR=1992
DGENRE=Country
TTITLE0=Love's On the Line
TTITLE1=Sacred Ground
TTITLE2=Makin' Real Good Time
TTITLE3=Going Out of My Mind
TTITLE4=Trick Rider
TTITLE5=All I Have To Offer You Is Me
TTITLE6=Your One and Only
TTITLE7=I'm the One
TTITLE8=Baby I'm Living You Now
TTITLE9=Just One Night
EXTD=
EXTT0=
EXTT1=
EXTT2=
EXTT3=
EXTT4=
EXTT5=
EXTT6=
EXTT7=
EXTT8=
EXTT9=
PLAYORDER=
